<?xml version="1.0" encoding="UTF-8" standalone="no"?>
<svg
   xmlns:dc="http://purl.org/dc/elements/1.1/"
   xmlns:cc="http://creativecommons.org/ns#"
   xmlns:rdf="http://www.w3.org/1999/02/22-rdf-syntax-ns#"
   xmlns:svg="http://www.w3.org/2000/svg"
   xmlns="http://www.w3.org/2000/svg"
   xmlns:sodipodi="http://sodipodi.sourceforge.net/DTD/sodipodi-0.dtd"
   xmlns:inkscape="http://www.inkscape.org/namespaces/inkscape"
   width="200.00058"
   height="57.924004"
   viewBox="0 0 40.960119 11.855325"
   version="1.1"
   id="svg3846"
   sodipodi:docname="express.svg"
   inkscape:version="0.92.5 (2060ec1f9f, 2020-04-08)">
  <metadata
     id="metadata3852">
    <rdf:RDF>
      <cc:Work
         rdf:about="">
        <dc:format>image/svg+xml</dc:format>
        <dc:type
           rdf:resource="http://purl.org/dc/dcmitype/StillImage" />
        <dc:title></dc:title>
      </cc:Work>
    </rdf:RDF>
  </metadata>
  <defs
     id="defs3850" />
  <sodipodi:namedview
     pagecolor="#ffffff"
     bordercolor="#666666"
     borderopacity="1"
     objecttolerance="10"
     gridtolerance="10"
     guidetolerance="10"
     inkscape:pageopacity="0"
     inkscape:pageshadow="2"
     inkscape:window-width="1680"
     inkscape:window-height="987"
     id="namedview3848"
     showgrid="false"
     fit-margin-top="0"
     fit-margin-left="0"
     fit-margin-right="0"
     fit-margin-bottom="0"
     inkscape:zoom="0.1492"
     inkscape:cx="-1659.3831"
     inkscape:cy="27.216396"
     inkscape:window-x="-8"
     inkscape:window-y="-8"
     inkscape:window-maximized="1"
     inkscape:current-layer="svg3846" />
  <path
     d="M 0.26656,9.203148 V 4.644654 H 5.9581 V 4.378014 H 0.26656 V 0.219361 H 6.31794 V -0.0472 H 0 V 9.469709 H 6.37122 V 9.203148 H 0.26664 Z M 11.50299,2.618568 9.14379,5.724258 6.83778,2.618648 H 6.49122 l 2.49257,3.30561 -2.73257,3.545371 h 0.31992 l 2.57249,-3.34561 2.58584,3.34561 h 0.33321 L 9.31691,5.924098 11.82275,2.618488 h -0.31984 z m 1.35953,9.197068 V 7.550423 h 0.0266 c 0.16,0.622002 0.47544,1.121843 0.9464,1.499524 0.47096,0.377602 1.07072,0.566482 1.79937,0.566482 0.47096,0 0.88864,-0.09552 1.25296,-0.286561 0.36432,-0.19104 0.66864,-0.450961 0.91304,-0.779762 0.24432,-0.328801 0.43096,-0.710882 0.55984,-1.146323 0.1288,-0.435362 0.19328,-0.893043 0.19328,-1.372805 0,-0.515441 -0.0667,-0.990883 -0.2,-1.426244 C 18.22073,4.169293 18.02745,3.791612 17.77425,3.471771 17.52097,3.15185 17.21441,2.902969 16.85449,2.725369 16.49465,2.547608 16.08809,2.458728 15.63489,2.458728 c -0.34657,0 -0.66865,0.05112 -0.96633,0.15328 -0.29768,0.102241 -0.562,0.246561 -0.79304,0.433202 a 2.9339287,2.9339287 0 0 0 -0.59984,0.659762 c -0.1688,0.25328 -0.29768,0.530961 -0.38656,0.833122 h -0.0266 V 2.618568 h -0.26656 v 9.197068 z m 2.77241,-2.452568 c -0.83521,0 -1.50617,-0.286561 -2.01265,-0.859682 -0.50648,-0.573122 -0.75976,-1.397364 -0.75976,-2.472568 0,-0.444321 0.0622,-0.866402 0.18664,-1.266243 0.1244,-0.399842 0.30432,-0.750883 0.53976,-1.052963 0.23552,-0.302161 0.52656,-0.542082 0.87304,-0.719763 0.34656,-0.17776 0.7376,-0.26664 1.17297,-0.26664 0.44432,0 0.83312,0.08888 1.16632,0.26664 0.3332,0.177681 0.60872,0.419842 0.8264,0.726403 0.21768,0.30656 0.38208,0.657602 0.4932,1.052963 0.11104,0.395441 0.16656,0.815282 0.16656,1.259603 0,0.399922 -0.051,0.797603 -0.15328,1.192964 -0.10216,0.395441 -0.25992,0.750882 -0.4732,1.066403 -0.2132,0.315361 -0.4864,0.573042 -0.81968,0.773042 -0.33328,0.199921 -0.73536,0.299841 -1.20632,0.299841 z m 4.38529,0.106641 V 5.590977 c 0,-0.373201 0.0533,-0.737602 0.16,-1.092963 0.10656,-0.355441 0.27096,-0.668722 0.49312,-0.939683 0.22216,-0.271041 0.50424,-0.484321 0.8464,-0.639842 0.34208,-0.15552 0.74865,-0.21992 1.21961,-0.19328 V 2.458648 c -0.4088,-0.0088 -0.76641,0.03552 -1.07297,0.13328 -0.30664,0.09776 -0.57096,0.231041 -0.79312,0.399921 -0.22216,0.168801 -0.39984,0.366482 -0.53312,0.593122 a 2.6520079,2.6520079 0 0 0 -0.29328,0.726402 h -0.0266 V 2.618568 H 19.7537 v 6.851221 h 0.26656 z m 3.05233,-3.37225 H 28.804 C 28.8218,5.626497 28.7752,5.173376 28.66408,4.737935 28.55304,4.302493 28.37528,3.915932 28.13096,3.578331 27.88656,3.24065 27.57112,2.969609 27.18456,2.765209 26.798,2.560808 26.33816,2.458648 25.80504,2.458648 c -0.38217,0 -0.75537,0.08 -1.11969,0.240001 -0.36432,0.15992 -0.68424,0.393121 -0.95968,0.699682 -0.27544,0.306561 -0.4976,0.682002 -0.6664,1.126403 -0.1688,0.444241 -0.25328,0.950723 -0.25328,1.519444 0,0.506482 0.0578,0.979683 0.17328,1.419525 0.11552,0.439841 0.2932,0.822002 0.53312,1.146323 0.24,0.324321 0.5488,0.575362 0.9264,0.753042 0.3776,0.177761 0.83304,0.262161 1.36625,0.253281 0.78192,0 1.43952,-0.220001 1.97264,-0.659762 0.5332,-0.439921 0.84864,-1.059683 0.9464,-1.859445 h -0.26656 c -0.11552,0.755362 -0.41104,1.321844 -0.8864,1.699445 -0.47544,0.377681 -1.07296,0.566481 -1.7928,0.566481 -0.48873,0 -0.90193,-0.0844 -1.23961,-0.2532 C 24.20111,8.941067 23.92559,8.709946 23.71231,8.416746 23.49911,8.123465 23.34135,7.779144 23.23919,7.383702 23.13695,6.988341 23.08143,6.55954 23.07255,6.097459 Z m 5.46489,-0.266561 h -5.46481 c 0.0266,-0.479842 0.11544,-0.910803 0.26648,-1.292884 0.15112,-0.382161 0.3488,-0.708722 0.5932,-0.979683 0.24432,-0.271041 0.52872,-0.477601 0.85304,-0.619842 0.32432,-0.14216 0.67312,-0.21328 1.04633,-0.21328 0.44432,0 0.8352,0.08224 1.17296,0.24664 0.3376,0.164401 0.61976,0.388802 0.8464,0.673122 0.22656,0.284321 0.3976,0.615362 0.51312,0.992963 0.11552,0.377681 0.17328,0.775363 0.17328,1.192964 z m 5.79818,-1.186244 h 0.26656 c 0,-0.764242 -0.22216,-1.319604 -0.6664,-1.666165 -0.4444,-0.346561 -1.04864,-0.519841 -1.81281,-0.519841 -0.42656,0 -0.7864,0.05336 -1.07968,0.16 -0.2932,0.106561 -0.53312,0.244321 -0.71976,0.413122 -0.18656,0.1688 -0.31984,0.355441 -0.39984,0.559841 -0.08,0.204401 -0.12,0.399921 -0.12,0.586482 0,0.373201 0.0666,0.670882 0.2,0.893043 0.13328,0.22216 0.34208,0.395441 0.6264,0.519841 0.19552,0.0888 0.4176,0.168801 0.66648,0.240001 0.2488,0.07104 0.5376,0.14656 0.8664,0.226481 0.29321,0.0712 0.58201,0.14224 0.86641,0.21328 0.28432,0.07112 0.53536,0.166641 0.75304,0.286561 0.21776,0.12 0.39544,0.273281 0.5332,0.459921 0.13768,0.186561 0.20656,0.430962 0.20656,0.733043 0,0.29328 -0.0688,0.542081 -0.20656,0.746402 a 1.6652049,1.6652049 0 0 1 -0.52648,0.499921 c -0.21328,0.128801 -0.45104,0.222081 -0.71312,0.279841 -0.26216,0.05776 -0.5176,0.08664 -0.7664,0.08664 -0.80865,0 -1.42849,-0.17992 -1.85945,-0.539761 -0.43096,-0.359921 -0.6464,-0.926403 -0.6464,-1.699525 h -0.26664 c 0,0.862002 0.23328,1.492884 0.69976,1.892805 0.46656,0.399841 1.15744,0.599762 2.07273,0.599762 0.2932,0 0.58864,-0.03336 0.8864,-0.1 0.2976,-0.06664 0.56424,-0.175441 0.79968,-0.326561 a 1.8073654,1.8073654 0 0 0 0.57312,-0.586402 c 0.14664,-0.240001 0.22,-0.533202 0.22,-0.879763 0,-0.328801 -0.0645,-0.595361 -0.19328,-0.799762 C 34.46666,6.71954 34.29786,6.55066 34.08898,6.41738 33.88018,6.284099 33.64474,6.179699 33.38258,6.104179 A 41.286523,41.286523 0 0 0 32.58946,5.884178 138.13441,138.13441 0 0 0 31.60977,5.630977 C 31.32993,5.559857 31.07001,5.475457 30.83009,5.377696 30.59905,5.279936 30.41465,5.140016 30.27689,4.957855 30.13913,4.775695 30.07033,4.515774 30.07033,4.178093 c 0,-0.06216 0.0178,-0.173281 0.0533,-0.333201 0.0355,-0.160001 0.12,-0.322161 0.25328,-0.486561 0.13328,-0.164321 0.3376,-0.310961 0.61312,-0.439842 0.27544,-0.1288 0.65312,-0.19328 1.13296,-0.19328 0.32881,0 0.62865,0.0356 0.89969,0.10664 0.27104,0.07112 0.50432,0.1844 0.69976,0.339921 0.19552,0.15552 0.34656,0.353201 0.4532,0.593122 0.10664,0.24 0.16,0.533201 0.16,0.879762 z m 6.1713,0 h 0.26656 c 0,-0.764242 -0.22208,-1.319604 -0.6664,-1.666165 -0.44432,-0.346561 -1.04856,-0.519841 -1.81281,-0.519841 -0.42648,0 -0.7864,0.05336 -1.0796,0.16 -0.29328,0.106561 -0.5332,0.244321 -0.71976,0.413122 -0.18664,0.1688 -0.31992,0.355441 -0.39992,0.559841 -0.08,0.204401 -0.11992,0.399921 -0.11992,0.586482 0,0.373201 0.0666,0.670882 0.2,0.893043 0.1332,0.22216 0.34208,0.395441 0.6264,0.519841 0.19552,0.0888 0.4176,0.168801 0.6664,0.240001 0.2488,0.07104 0.5376,0.14656 0.8664,0.226481 0.29328,0.0712 0.58208,0.14224 0.86641,0.21328 0.2844,0.07112 0.53536,0.166641 0.75312,0.286561 0.21768,0.12 0.39544,0.273281 0.53312,0.459921 0.13776,0.186561 0.20664,0.430962 0.20664,0.733043 0,0.29328 -0.0689,0.542081 -0.20664,0.746402 a 1.6652049,1.6652049 0 0 1 -0.5264,0.499921 c -0.21336,0.128801 -0.45104,0.222081 -0.7132,0.279841 -0.26209,0.05776 -0.51761,0.08664 -0.76641,0.08664 -0.80864,0 -1.4284,-0.17992 -1.85936,-0.539761 C 36.19051,8.463386 35.97507,7.896904 35.97507,7.123782 h -0.26656 c 0,0.862002 0.2332,1.492884 0.69976,1.892805 0.46648,0.399841 1.15736,0.599762 2.07264,0.599762 0.29328,0 0.58873,-0.03336 0.88641,-0.1 0.2976,-0.06664 0.56424,-0.175441 0.79976,-0.326561 A 1.8073654,1.8073654 0 0 0 40.7402,8.603386 c 0.14664,-0.240001 0.21992,-0.533202 0.21992,-0.879763 0,-0.328801 -0.0644,-0.595361 -0.19328,-0.799762 C 40.63804,6.71954 40.46924,6.55066 40.26036,6.41738 40.05156,6.284099 39.81604,6.179699 39.55396,6.104179 A 41.285803,41.285803 0 0 0 38.76083,5.884178 138.13241,138.13241 0 0 0 37.78115,5.630977 C 37.50123,5.559857 37.24131,5.475457 37.00139,5.377696 36.77035,5.279936 36.58595,5.140016 36.44827,4.957855 36.31051,4.775695 36.24163,4.515774 36.24163,4.178093 c 0,-0.06216 0.0178,-0.173281 0.0534,-0.333201 0.0355,-0.160001 0.12,-0.322161 0.2532,-0.486561 0.13328,-0.164321 0.33768,-0.310961 0.61312,-0.439842 0.27552,-0.1288 0.65312,-0.19328 1.13304,-0.19328 0.3288,0 0.62864,0.0356 0.89969,0.10664 0.27104,0.07112 0.50424,0.1844 0.69976,0.339921 0.19552,0.15552 0.34656,0.353201 0.4532,0.593122 0.10664,0.24 0.16,0.533201 0.16,0.879762 z"
     id="path3844"
     inkscape:connector-curvature="0"
     style="fill:#333333;stroke-width:0.08000024" />
</svg>
