<?xml version="1.0" encoding="UTF-8" standalone="no"?>
<!-- Generator: Adobe Illustrator 15.0.1, SVG Export Plug-In . SVG Version: 6.00 Build 0)  -->

<svg
   xmlns:dc="http://purl.org/dc/elements/1.1/"
   xmlns:cc="http://creativecommons.org/ns#"
   xmlns:rdf="http://www.w3.org/1999/02/22-rdf-syntax-ns#"
   xmlns:svg="http://www.w3.org/2000/svg"
   xmlns="http://www.w3.org/2000/svg"
   xmlns:sodipodi="http://sodipodi.sourceforge.net/DTD/sodipodi-0.dtd"
   xmlns:inkscape="http://www.inkscape.org/namespaces/inkscape"
   version="1.1"
   id="Layer_1"
   x="0px"
   y="0px"
   width="200"
   height="281.55768"
   viewBox="0 0 200 281.55768"
   enable-background="new 0 0 512 512"
   xml:space="preserve"
   sodipodi:docname="html.svg"
   inkscape:version="0.92.5 (2060ec1f9f, 2020-04-08)"><metadata
   id="metadata4338"><rdf:RDF><cc:Work
       rdf:about=""><dc:format>image/svg+xml</dc:format><dc:type
         rdf:resource="http://purl.org/dc/dcmitype/StillImage" /><dc:title></dc:title></cc:Work></rdf:RDF></metadata><defs
   id="defs4336" /><sodipodi:namedview
   pagecolor="#ffffff"
   bordercolor="#666666"
   borderopacity="1"
   objecttolerance="10"
   gridtolerance="10"
   guidetolerance="10"
   inkscape:pageopacity="0"
   inkscape:pageshadow="2"
   inkscape:window-width="1680"
   inkscape:window-height="987"
   id="namedview4334"
   showgrid="false"
   fit-margin-top="0"
   fit-margin-left="0"
   fit-margin-right="0"
   fit-margin-bottom="0"
   inkscape:zoom="0.4609375"
   inkscape:cx="-469.34903"
   inkscape:cy="140.77884"
   inkscape:window-x="-8"
   inkscape:window-y="-8"
   inkscape:window-maximized="1"
   inkscape:current-layer="Layer_1" />
<g
   id="g4316"
   transform="matrix(0.54991737,0,0,0.54991737,-40.700484,0)">
	<g
   id="g4314">
		<g
   id="g4312">
			<path
   d="m 108.382,0 h 23.077 v 22.8 h 21.11 V 0 h 23.078 V 69.044 H 152.57 v -23.12 h -21.11 v 23.12 h -23.077 z"
   id="path4304"
   inkscape:connector-curvature="0" />
			<path
   d="M 205.994,22.896 H 185.678 V 0 h 63.72 v 22.896 h -20.325 v 46.148 h -23.078 z"
   id="path4306"
   inkscape:connector-curvature="0" />
			<path
   d="m 259.511,0 h 24.063 L 298.376,24.26 313.163,0 h 24.072 V 69.044 H 314.253 V 34.822 l -15.877,24.549 h -0.397 L 282.091,34.822 v 34.222 h -22.58 z"
   id="path4308"
   inkscape:connector-curvature="0" />
			<path
   d="m 348.72,0 h 23.084 v 46.222 h 32.453 V 69.044 H 348.72 Z"
   id="path4310"
   inkscape:connector-curvature="0" />
		</g>
	</g>
</g>
<g
   id="Guides_to_delete"
   transform="matrix(0.54991737,0,0,0.54991737,-40.700484,0)">
	<g
   id="g4330">
		<polygon
   points="404.549,470.755 255.769,512 107.125,470.727 74.012,99.297 437.703,99.297 "
   id="polygon4318"
   style="fill:#e34e26" />
		<polygon
   points="404.51,129.657 255.857,129.657 255.857,480.449 376.164,447.101 "
   id="polygon4320"
   style="fill:#ef662a" />
		<polygon
   points="306.637,372.066 255.799,385.811 205.057,372.085 201.664,334.146 155.937,334.146 162.476,407.282 255.787,433.199 349.219,407.282 361.744,267.429 195.706,267.429 191.538,220.777 365.732,220.777 365.873,220.777 369.953,175.217 141.761,175.217 154.041,312.978 311.936,312.978 "
   id="polygon4322"
   style="fill:#ffffff" />
		<g
   id="g4328">
			<polygon
   points="255.857,312.978 255.857,267.429 195.706,267.429 191.538,220.777 255.857,220.777 255.857,175.217 141.761,175.217 154.041,312.978 "
   id="polygon4324"
   style="fill:#ebebeb" />
			<polygon
   points="201.664,334.146 155.937,334.146 162.476,407.282 255.787,433.199 255.857,433.179 255.857,385.791 255.799,385.811 205.057,372.085 "
   id="polygon4326"
   style="fill:#ebebeb" />
		</g>
	</g>
</g>
</svg>