<?xml version="1.0" encoding="UTF-8" standalone="no"?>
<svg
   xmlns:dc="http://purl.org/dc/elements/1.1/"
   xmlns:cc="http://creativecommons.org/ns#"
   xmlns:rdf="http://www.w3.org/1999/02/22-rdf-syntax-ns#"
   xmlns:svg="http://www.w3.org/2000/svg"
   xmlns="http://www.w3.org/2000/svg"
   xmlns:sodipodi="http://sodipodi.sourceforge.net/DTD/sodipodi-0.dtd"
   xmlns:inkscape="http://www.inkscape.org/namespaces/inkscape"
   width="200"
   height="200"
   viewBox="0 0 84.16 84.16"
   version="1.1"
   id="svg3940"
   sodipodi:docname="javascript.svg"
   inkscape:version="0.92.5 (2060ec1f9f, 2020-04-08)">
  <metadata
     id="metadata3946">
    <rdf:RDF>
      <cc:Work
         rdf:about="">
        <dc:format>image/svg+xml</dc:format>
        <dc:type
           rdf:resource="http://purl.org/dc/dcmitype/StillImage" />
        <dc:title></dc:title>
      </cc:Work>
    </rdf:RDF>
  </metadata>
  <defs
     id="defs3944" />
  <sodipodi:namedview
     pagecolor="#ffffff"
     bordercolor="#666666"
     borderopacity="1"
     objecttolerance="10"
     gridtolerance="10"
     guidetolerance="10"
     inkscape:pageopacity="0"
     inkscape:pageshadow="2"
     inkscape:window-width="1680"
     inkscape:window-height="987"
     id="namedview3942"
     showgrid="false"
     fit-margin-top="0"
     fit-margin-left="0"
     fit-margin-right="0"
     fit-margin-bottom="0"
     inkscape:zoom="0.0944"
     inkscape:cx="-2680.7203"
     inkscape:cy="100"
     inkscape:window-x="-8"
     inkscape:window-y="-8"
     inkscape:window-maximized="1"
     inkscape:current-layer="svg3940" />
  <path
     d="M 0,0 H 84.16 V 84.16 H 0 Z"
     id="path3936"
     inkscape:connector-curvature="0"
     style="fill:#f0db4f;stroke-width:0.08" />
  <path
     d="m 77.272,64.088 c -0.616,-3.84 -3.12,-7.064 -10.536,-10.072 -2.576,-1.184 -5.448,-2.03192 -6.304,-3.984 -0.304,-1.136 -0.344,-1.776 -0.152,-2.464 0.552,-2.232 3.216,-2.928 5.328,-2.288 1.36,0.456 2.648,1.50408 3.424,3.176 3.632,-2.35192 3.624,-2.336 6.16,-3.95192 -0.928,-1.44 -1.424,-2.10408 -2.032,-2.72 -2.184,-2.44 -5.16,-3.696 -9.92,-3.6 -0.824,0.104 -1.65592,0.21592 -2.48,0.32 -2.37592,0.6 -4.64,1.848 -5.968,3.52 -3.984,4.52 -2.848,12.43192 2,15.688 4.776,3.584 11.792,4.4 12.688,7.752 0.872,4.104 -3.01592,5.43192 -6.88,4.96 -2.848,-0.592 -4.43192,-2.04 -6.144,-4.672 -3.15192,1.824 -3.15192,1.824 -6.39192,3.688 0.768,1.68 1.57592,2.44 2.864,3.896 6.096,6.184 21.35192,5.88 24.088,-3.48 C 77.128,69.536 77.86408,67.392 77.272,64.088 Z M 45.752,38.68 H 37.88 c 0,6.8 -0.0319,13.552 -0.0319,20.352 0,4.328 0.224,8.296 -0.48,9.512 -1.152,2.39192 -4.136,2.096 -5.496,1.63192 -1.384,-0.68 -2.088,-1.648 -2.904,-3.01592 -0.224,-0.392 -0.392,-0.696 -0.44808,-0.72 -2.13592,1.304 -4.264,2.61592 -6.4,3.92 1.06408,2.184 2.632,4.08 4.64,5.31192 3,1.8 7.032,2.352 11.24808,1.384 2.744,-0.8 5.11192,-2.45592 6.35192,-4.97592 1.792,-3.304 1.408,-7.304 1.392,-11.728 0.04,-7.216 0,-14.432 0,-21.672 z"
     id="path3938"
     inkscape:connector-curvature="0"
     style="fill:#323330;stroke-width:0.08" />
</svg>
