<?xml version="1.0" encoding="UTF-8" standalone="no"?>
<svg
   xmlns:dc="http://purl.org/dc/elements/1.1/"
   xmlns:cc="http://creativecommons.org/ns#"
   xmlns:rdf="http://www.w3.org/1999/02/22-rdf-syntax-ns#"
   xmlns:svg="http://www.w3.org/2000/svg"
   xmlns="http://www.w3.org/2000/svg"
   xmlns:sodipodi="http://sodipodi.sourceforge.net/DTD/sodipodi-0.dtd"
   xmlns:inkscape="http://www.inkscape.org/namespaces/inkscape"
   width="199.99985"
   height="149.91501"
   viewBox="0 0 40.959969 30.702594"
   version="1.1"
   id="svg4234"
   sodipodi:docname="sass.svg"
   inkscape:version="0.92.5 (2060ec1f9f, 2020-04-08)">
  <metadata
     id="metadata4240">
    <rdf:RDF>
      <cc:Work
         rdf:about="">
        <dc:format>image/svg+xml</dc:format>
        <dc:type
           rdf:resource="http://purl.org/dc/dcmitype/StillImage" />
        <dc:title></dc:title>
      </cc:Work>
    </rdf:RDF>
  </metadata>
  <defs
     id="defs4238" />
  <sodipodi:namedview
     pagecolor="#ffffff"
     bordercolor="#666666"
     borderopacity="1"
     objecttolerance="10"
     gridtolerance="10"
     guidetolerance="10"
     inkscape:pageopacity="0"
     inkscape:pageshadow="2"
     inkscape:window-width="1680"
     inkscape:window-height="987"
     id="namedview4236"
     showgrid="false"
     fit-margin-top="0"
     fit-margin-left="0"
     fit-margin-right="0"
     fit-margin-bottom="0"
     inkscape:zoom="0.12586667"
     inkscape:cx="-1984.8667"
     inkscape:cy="75.518679"
     inkscape:window-x="-8"
     inkscape:window-y="-8"
     inkscape:window-maximized="1"
     inkscape:current-layer="svg4234" />
  <path
     d="m 35.260267,17.630408 c -1.43213,0.008 -2.67224,0.35203 -3.71233,0.86416 -0.38403,-0.76007 -0.76806,-1.4242 -0.83199,-1.92017 -0.072,-0.57605 -0.16001,-0.92816 -0.072,-1.61614 0.0879,-0.68814 0.48797,-1.66422 0.48797,-1.74423 -0.008,-0.072 -0.0881,-0.42404 -0.91208,-0.43204 -0.82399,-0.008 -1.53614,0.16001 -1.61614,0.37603 -0.08,0.21602 -0.24002,0.71207 -0.34403,1.22411 -0.14402,0.75207 -1.64815,3.4163 -2.50422,4.81642 -0.28003,-0.54405 -0.52005,-1.02409 -0.56813,-1.4082 -0.0719,-0.57597 -0.16002,-0.92808 -0.0719,-1.61606 0.088,-0.68814 0.48804,-1.66415 0.48804,-1.74416 -0.008,-0.072 -0.088,-0.42403 -0.912,-0.43203 -0.82415,-0.008 -1.53613,0.16001 -1.61614,0.37603 -0.08,0.21602 -0.16801,0.72806 -0.34403,1.22411 -0.16809,0.49604 -2.16827,4.94443 -2.68831,6.10453 -0.26402,0.59205 -0.49596,1.06409 -0.66406,1.38412 -0.16801,0.32003 -0.008,0.024 -0.024,0.056 -0.14401,0.27202 -0.22402,0.42403 -0.22402,0.42403 v 0.008 c -0.11201,0.20002 -0.23202,0.39196 -0.28811,0.39196 -0.04,0 -0.12001,-0.53605 0.016,-1.27203 0.29602,-1.54422 1.01608,-3.95235 1.00816,-4.04036 0,-0.04 0.13594,-0.46412 -0.46412,-0.68006 -0.58405,-0.21601 -0.79199,0.14402 -0.84007,0.14402 -0.048,0 -0.088,0.12801 -0.088,0.12801 0,0 0.64806,-2.71216 -1.24011,-2.71216 -1.1841,0 -2.81624,1.28811 -3.62431,2.46422 -0.51205,0.28002 -1.60014,0.87199 -2.75224,1.50413 -0.44004,0.24002 -0.8960799,0.49604 -1.3281199,0.72806 l -0.0879,-0.0962 c -2.2882,-2.44021 -6.52057,-4.16836 -6.34455,-7.44865 0.064,-1.1921 0.48004,-4.33638 8.1287899,-8.14471 6.26455,-3.12027 11.28098,-2.2642 12.15298,-0.36003 1.24011,2.72024 -2.68023,7.77668 -9.19272,8.50474 -2.48022,0.28003 -3.78441,-0.68006 -4.11236,-1.04009 -0.3440299,-0.37603 -0.3920399,-0.39203 -0.5200499,-0.32003 -0.20802,0.11201 -0.08,0.44804 0,0.64806 0.19202,0.50404 0.9920899,1.40012 2.3522099,1.84816 1.19202,0.39204 4.10436,0.60805 7.62466,-0.75206 3.94435,-1.52814 7.02462,-5.76851 6.12054,-9.31282 -0.92008,-3.60831002 -6.9046,-4.79242 -12.5611,-2.78424002 C 9.7221071,2.172938 6.0737871,4.045108 3.4495571,6.501318 c -3.12027,2.91226 -3.61632,5.45648 -3.4083,6.51257 0.72815,3.76833 5.92052,6.22454 8.0007,8.0407 -0.10401,0.0559 -0.20002,0.11193 -0.28802,0.16002 -1.0401,0.51196 -5.00044,2.58422 -5.99253,4.77633 -1.1201,2.48022 0.17602,4.26446 1.04009,4.50448 2.67224,0.74406 5.40848,-0.59205 6.8886,-2.79225 1.4720499,-2.20019 1.2961199,-5.05644 0.6160599,-6.36055 l -0.0241,-0.048 0.81607,-0.48004 c 0.52812,-0.31203 1.04817,-0.60005 1.50413,-0.84815 -0.25594,0.69606 -0.44004,1.52013 -0.53597,2.72024 -0.11201,1.4082 0.46404,3.23228 1.22411,3.95234 0.33603,0.31195 0.73606,0.32003 0.98408,0.32003 0.88008,0 1.28012,-0.72814 1.72016,-1.60014 0.54404,-1.06409 1.02408,-2.2962 1.02408,-2.2962 0,0 -0.60005,3.33629 1.0401,3.33629 0.60005,0 1.2001,-0.77607 1.47212,-1.1761 v 0.008 c 0,0 0.016,-0.024 0.048,-0.08 a 2.8906525,2.8906525 0 0 0 0.096,-0.15193 v -0.016 c 0.24002,-0.41604 0.77606,-1.36812 1.57613,-2.94426 1.03201,-2.03218 2.02418,-4.5764 2.02418,-4.5764 0,0 0.096,0.62405 0.39204,1.64814 0.17593,0.60814 0.55996,1.27211 0.85599,1.92017 -0.24002,0.33603 -0.38403,0.52813 -0.38403,0.52813 l 0.008,0.008 c -0.19194,0.25602 -0.40804,0.52812 -0.63198,0.80007 -0.81607,0.97608 -1.79215,2.08826 -1.92017,2.40829 -0.15201,0.37595 -0.12001,0.65598 0.17602,0.88007 0.21602,0.16002 0.60005,0.19194 1.00809,0.16002 0.73606,-0.0481 1.24811,-0.23202 1.50413,-0.34411 0.40003,-0.14401 0.85607,-0.36003 1.29611,-0.68006 0.80007,-0.59197 1.28811,-1.43205 1.24011,-2.55214 -0.024,-0.61606 -0.22402,-1.22411 -0.47204,-1.80016 0.072,-0.10401 0.14409,-0.2081 0.21602,-0.32003 1.26411,-1.84824 2.24019,-3.88034 2.24019,-3.88034 0,0 0.096,0.62406 0.39204,1.64815 0.15193,0.52004 0.45604,1.08817 0.72806,1.64822 -1.1841,0.96808 -1.92817,2.08818 -2.18419,2.82425 -0.47204,1.36012 -0.10401,1.97617 0.59205,2.12018 0.31195,0.064 0.76007,-0.08 1.09602,-0.22402 0.41603,-0.13601 0.92008,-0.36811 1.3842,-0.71206 0.80007,-0.59205 1.56814,-1.41612 1.52813,-2.52822 -0.024,-0.51205 -0.16001,-1.01609 -0.34403,-1.49613 1.00809,-0.41604 2.31212,-0.65606 3.96835,-0.45604 3.56031,0.41604 4.26437,2.64023 4.12844,3.56831 -0.13601,0.92816 -0.88008,1.44013 -1.12818,1.60014 -0.24802,0.15201 -0.32803,0.2081 -0.30403,0.32003 0.032,0.16809 0.14402,0.16001 0.36004,0.12809 0.29602,-0.0481 1.87216,-0.76007 1.93617,-2.47214 0.096,-2.20051 -1.99218,-4.60072 -5.6965,-4.5768 z m -27.4583999,9.25681 c -1.1761,1.28811 -2.83225,1.77616 -3.53631,1.36012 -0.76007,-0.44004 -0.46412,-2.3362 0.98409,-3.70432 0.88007,-0.83207 2.02417,-1.60014 2.77624,-2.07218 0.16801,-0.10401 0.42404,-0.25595 0.72806,-0.44004 0.048,-0.0319 0.08,-0.048 0.08,-0.048 0.056,-0.032 0.12001,-0.072 0.18402,-0.11201 0.53604,1.95217 0.024,3.66432 -1.21611,5.01644 z m 8.6007499,-5.84851 c -0.40803,1.00009 -1.27211,3.56831 -1.79216,3.4243 -0.44811,-0.12001 -0.72006,-2.06418 -0.0881,-3.98435 0.32002,-0.96816 1.00008,-2.12018 1.40012,-2.5683 0.64814,-0.72006 1.35212,-0.96009 1.52821,-0.66406 0.20802,0.38411 -0.79207,3.16836 -1.04809,3.79241 z m 7.09662,3.3923 c -0.17601,0.0881 -0.33603,0.15201 -0.40804,0.10409 -0.056,-0.032 0.0719,-0.15202 0.0719,-0.15202 0,0 0.88808,-0.95208 1.24011,-1.39212 0.20002,-0.25594 0.44004,-0.55197 0.69606,-0.88808 v 0.096 c 8e-5,1.15202 -1.10402,1.92009 -1.60006,2.23212 z m 5.4724,-1.24811 c -0.12801,-0.096 -0.11193,-0.39204 0.32003,-1.32012 0.16809,-0.36803 0.55204,-0.98408 1.2161,-1.56813 0.08,0.24002 0.12809,0.47196 0.12001,0.68806 -0.008,1.44012 -1.03201,1.97617 -1.65614,2.20019 z"
     id="path4232"
     inkscape:connector-curvature="0"
     style="fill:#cf649a;stroke-width:0.08000699" />
</svg>
