<?xml version="1.0" encoding="UTF-8" standalone="no"?>
<svg
   xmlns:dc="http://purl.org/dc/elements/1.1/"
   xmlns:cc="http://creativecommons.org/ns#"
   xmlns:rdf="http://www.w3.org/1999/02/22-rdf-syntax-ns#"
   xmlns:svg="http://www.w3.org/2000/svg"
   xmlns="http://www.w3.org/2000/svg"
   xmlns:sodipodi="http://sodipodi.sourceforge.net/DTD/sodipodi-0.dtd"
   xmlns:inkscape="http://www.inkscape.org/namespaces/inkscape"
   id="Layer_1"
   viewBox="0 0 32 32"
   width="200"
   height="200"
   version="1.1"
   sodipodi:docname="typescript.svg"
   inkscape:version="0.92.5 (2060ec1f9f, 2020-04-08)">
  <metadata
     id="metadata4266">
    <rdf:RDF>
      <cc:Work
         rdf:about="">
        <dc:format>image/svg+xml</dc:format>
        <dc:type
           rdf:resource="http://purl.org/dc/dcmitype/StillImage" />
        <dc:title></dc:title>
      </cc:Work>
    </rdf:RDF>
  </metadata>
  <defs
     id="defs4264" />
  <sodipodi:namedview
     pagecolor="#ffffff"
     bordercolor="#666666"
     borderopacity="1"
     objecttolerance="10"
     gridtolerance="10"
     guidetolerance="10"
     inkscape:pageopacity="0"
     inkscape:pageshadow="2"
     inkscape:window-width="1680"
     inkscape:window-height="987"
     id="namedview4262"
     showgrid="false"
     fit-margin-top="0"
     fit-margin-left="0"
     fit-margin-right="0"
     fit-margin-bottom="0"
     inkscape:zoom="0.0944"
     inkscape:cx="-2677.0127"
     inkscape:cy="100"
     inkscape:window-x="-8"
     inkscape:window-y="-8"
     inkscape:window-maximized="1"
     inkscape:current-layer="Layer_1" />
  <style
     id="style4255">.st0{fill:#007acc}.st1{fill:#fff}</style>
  <path
     class="st0"
     d="M 0,16 V 0 H 32 V 32 H 0"
     id="path4257"
     inkscape:connector-curvature="0"
     style="fill:#007acc;stroke-width:0.08" />
  <path
     class="st1"
     d="m 7.016,16.056 v 1.304 h 4.16 V 29.2 h 2.952 V 17.36 h 4.16 v -1.28 c 0,-0.72 0,-1.304 -0.032,-1.32 0,-0.024 -2.536,-0.032 -5.616,-0.032 l -5.6,0.024 v 1.312 z M 25.712,14.72 c 0.816,0.192 1.44,0.56 2,1.144 0.296,0.32 0.736,0.88 0.768,1.024 0,0.048 -1.384,0.984 -2.224,1.504 -0.032,0.024 -0.16,-0.112 -0.288,-0.32 -0.416,-0.592 -0.84,-0.848 -1.504,-0.896 -0.96,-0.064 -1.6,0.44 -1.6,1.28 0,0.256 0.048,0.4 0.144,0.608 0.216,0.44 0.616,0.704 1.856,1.248 2.288,0.984 3.28,1.632 3.88,2.56 0.68,1.04 0.832,2.672 0.376,3.896 -0.512,1.336 -1.76,2.24 -3.544,2.536 -0.56,0.096 -1.84,0.08 -2.44,-0.024 -1.28,-0.24 -2.504,-0.88 -3.256,-1.704 -0.296,-0.32 -0.864,-1.176 -0.832,-1.232 l 0.304,-0.192 1.2,-0.696 0.904,-0.528 0.208,0.28 c 0.264,0.416 0.856,0.976 1.2,1.168 1.04,0.536 2.432,0.464 3.12,-0.16 0.296,-0.272 0.424,-0.56 0.424,-0.96 0,-0.368 -0.056,-0.536 -0.24,-0.816 C 25.912,24.088 25.4,23.8 23.96,23.16 22.304,22.456 21.6,22.008 20.944,21.32 c -0.376,-0.416 -0.72,-1.064 -0.88,-1.6 -0.12,-0.464 -0.16,-1.6 -0.048,-2.056 0.344,-1.6 1.552,-2.72 3.28,-3.04 0.56,-0.112 1.88,-0.064 2.432,0.08 z"
     id="path4259"
     inkscape:connector-curvature="0"
     style="fill:#ffffff;stroke-width:0.08" />
</svg>
